<svg xmlns="http://www.w3.org/2000/svg" fill-rule="evenodd" stroke-linejoin="round" stroke-miterlimit="2" clip-rule="evenodd" viewBox="0 0 32 32" id="chat">
  <path d="M339.826,22.822L338.08,28.676C337.982,29.003 338.059,29.358 338.283,29.616C338.507,29.875 338.847,30.001 339.185,29.951L346.565,28.856C348.24,29.567 350.084,29.962 352.019,29.962C359.735,29.962 366,23.697 366,15.981C366,8.265 359.735,2 352.019,2C344.303,2 338.038,8.265 338.038,15.981C338.038,18.465 338.688,20.799 339.826,22.822ZM346,14C344.896,14 344,14.896 344,16C344,17.104 344.896,18 346,18C347.104,18 348,17.104 348,16C348,14.896 347.104,14 346,14ZM352,14C350.896,14 350,14.896 350,16C350,17.104 350.896,18 352,18C353.104,18 354,17.104 354,16C354,14.896 353.104,14 352,14ZM358,14C356.896,14 356,14.896 356,16C356,17.104 356.896,18 358,18C359.104,18 360,17.104 360,16C360,14.896 359.104,14 358,14Z" transform="translate(-336)"></path>
</svg>