<?xml version="1.0" encoding="UTF-8"?><svg id="a" xmlns="http://www.w3.org/2000/svg" viewBox="0 0 800 600.7"><path d="M155.06,568.58c8.03-5.66,15.44-10.86,22.83-16.09,7.81-5.53,15.45-11.35,23.5-16.51,2.89-1.86,6.78-3.07,10.19-3.04,7.42,.09,13.83-3.27,21.14-4.81,0-4.12,.02-8.24,0-12.35-.02-4.34-.09-8.68-.11-13.03-.01-2.57,.16-5.02,2.72-6.63,.56-.35,.68-1.54,.81-2.37,.24-1.46-.64-3.41,1.96-3.69,.28-.03,.61-1.16,.64-1.8,.39-7.38,.73-14.77,1.09-22.15,.05-1.03,.11-2.06,.17-3.09,.28,0,.56-.01,.84-.02,.07,1.1,.16,2.19,.22,3.29,.4,7.31,.49,14.65,1.35,21.91,.33,2.82,2.4,5.43,3.69,8.14,.74,1.55,2.06,3.06,2.14,4.65,.28,5.24,.11,10.5,.11,15.75,0,1.29,0,2.58,0,4.01,3.55-.33,6.76-.52,9.93-.98,.8-.12,1.82-.93,2.16-1.69,7.02-15.34,12.22-31.06,10.59-48.35-1.84-19.48-3.45-38.98-5.02-58.49-.49-6.13-.54-12.3-.8-18.46-.05-1.27-.14-2.54-.23-4.17-2.21,1.73-4.07,3.19-6.3,4.93,1.37-4.13,2.6-7.81,3.82-11.48l-.66-.27c-.92,1.54-1.85,3.07-2.87,4.77-.51-5.34-.98-10.39-1.46-15.43l-.57-.04c-.34,1.53-.69,3.07-1.03,4.6l-.47,.02c-.35-3.23-.7-6.47-1.05-9.7l-.61,.02-.36,2.87c-1.01-2.94-1.8-5.26-2.6-7.58l-.58,.06-.32,4.39c-2.03-5.34-3.91-10.29-5.79-15.23l-.67,.12-.26,4.87-.59,.19c-2.62-7.83-5.24-15.66-7.99-23.88-.35,1.02-.71,1.92-.97,2.86-.26,.95-.42,1.93-.62,2.9-.34,0-.67,0-1.01-.01-.34-7.9-.69-15.8-1.01-23.32-.69,.77-1.87,2.09-3.3,3.68,.86-4.71,1.66-9.11,2.57-14.15l-3.22,2.06c1.29-4.11,2.51-7.96,3.73-11.82l-.6-.27c-1.33,2.25-2.66,4.5-3.98,6.75l-.55-.07c.38-6.26,.75-12.52,1.18-19.55l-2.75,4.67c-.42-3.2-.8-6.1-1.18-8.99l-.73-.08c-.41,1.6-.83,3.21-1.32,5.12-1.8-6.19-1.24-11.35,2.52-24.02-1.69,1.28-3.12,2.36-4.56,3.45l-.56-.32c1.75-3.74,3.5-7.48,5.25-11.23l-.39-.43c-2.41,1.49-4.82,2.98-7.88,4.87,2.98-5.56,5.59-10.46,8.45-15.8-2.7,1.69-4.86,3.04-7.02,4.39l-.54-.44c2.48-4.52,4.95-9.03,7.43-13.55l-.57-.33c-1.89,1.57-3.79,3.14-6.36,5.26,2.07-6.71,3.89-12.6,5.92-19.19-2.5,1.76-4.3,3.03-6.44,4.54,1.1-4.93,2.11-9.45,3.32-14.87-2.46,2.2-4.26,3.8-6.78,6.05,2.91-7.38,5.49-13.94,8.37-21.23-2.62,2.33-4.63,4.13-6.96,6.2,1.61-5.88,3.08-11.27,4.56-16.66l-.85-.38-1.76,1.64c-.2-.21-.42-.36-.4-.44,3.48-13.49-.51-25.45-7.56-36.75-2.9-4.65-5.82-8.97-10.58-12.45-6.08-4.45-10.4-11-10.42-19.23-.01-4.91,3.31-7.52,8.09-6.71,.85,.14,1.78,.04,2.65-.1,1.17-.19,2.32-.53,4.01-.93,1.38-1.88,3.18-4.32,4.97-6.77l.88,.49c-.72,2.09-1.56,4.15-2.08,6.29-.22,.91-.15,2.44,.42,2.9,3.89,3.14,7.95,6.08,12.32,9.35-2.06-14.05-4.07-27.81-6.12-41.81l-1.79,.84c-.13-.18-.32-.32-.33-.48-.4-4.88,.65-9.18,4.71-12.42,.72-.57,1.01-1.68,1.49-2.54,1.83-3.31,4.05-6.38,5.96-9.64,2.48-4.21,8.99-3.24,11.81,1.64,6.51,11.32,16.5,19.44,25.61,28.35,1.84,1.8,4.83,2.83,7.46,3.36,11.14,2.26,18.81,9.27,25.2,17.99,2.91,3.97,5.38,8.27,7.95,12.48,2.56,4.19,5.86,7.4,10.69,8.81,.91,.27,1.75,.77,3.46,1.54-1.92,.14-2.88,.22-4.53,.34l10.41,3.7-3.23,.74c1.85,1.03,3.35,2.04,4.98,2.75,7.45,3.26,14.96,6.41,22.42,9.66,2.53,1.1,5.82,1.77,6.1,5.13,.27,3.18-2.67,4.59-4.89,6.01-7.53,4.8-15.8,7.83-25.12,9.83,1.68,3.49,3.29,6.85,5.09,10.59-1.09-.66-1.93-1.17-3.42-2.08,2.08,3.13,3.76,5.65,5.43,8.17l-.4,.39-3.3-2.89-.56,.44c3.4,4.99,6.8,9.98,10.66,15.65-1.82-.69-3.02-1.14-4.23-1.59l-.3,.46c2.95,2.55,5.91,5.09,8.86,7.64l-.23,.38c-.97-.4-1.93-.79-2.9-1.19l-.31,.38c.78,.7,1.55,1.39,2.68,2.4-2.34-.17-4.34-.31-6.33-.45l-.19,.58c5.02,1.86,10.03,3.73,15.05,5.59l-.1,.45c-2-.16-4-.33-6.75-.55,4.19,5.15,9.53,6.46,15.68,7.78-2.11,.44-3.55,.74-5.79,1.21,5.37,1.64,10.05,3.06,15.24,4.64-1.14,.42-1.81,.67-2.48,.92l-.15,.8c5.56,1.7,11.12,3.41,17.15,5.25-3.62,.38-6.86,.71-10.79,1.12,4.08,1.78,7.55,3.29,11.02,4.8l-.18,.73-4.32,.21-.23,.56c2.5,1.01,4.93,2.22,7.5,3.01,32.94,10.13,65.82,20.44,98.88,30.15,10.66,3.13,19.26,8.38,25.62,17.42,11.81,16.79,21.63,34.64,28.49,54.03,2.18,6.17,2.9,12.44,1.29,19-.58,2.37-.03,5.25,.72,7.68,5.46,17.72,12.05,34.97,21.59,51.26-2.96-2.13-5.93-4.26-8.89-6.38,2.47,5.98,8.15,8.2,12.65,12.06-2.65-.53-5.3-1.05-8.48-1.68,4.06,8.97,10.06,15.14,19.54,18.3-2.41,.78-4.33,1.41-6.25,2.03l.12,.76c1.94,.11,3.88,.22,6.67,.38l-4.67,2.89c6.94,7.45,15.87,9.55,25.49,10.72-.83,.25-1.66,.52-2.5,.76-.93,.27-1.86,.52-2.79,.78l.17,.81,9.75-1.79,.25,.43c-3.81,1.79-7.62,3.58-12.15,5.7,6.29,1.75,12.08,3.33,17.85,4.96,12.65,3.57,22.47-2.48,31.95-9.5,2.48-1.84,4.61-4.14,7.16-6.46-2.26,9.55-6.2,17.98-12.14,25.49l.4,.75c4.01-1.77,8.02-3.53,12.69-5.59-2.07,2.75-3.63,5.34-5.69,7.43-2.24,2.28-4.81,4.31-7.48,6.07-2.56,1.68-5.43,2.87-7.99,4.76,2.48-.49,4.97-.99,7.85-1.56-6.93,6.68-14.42,11.46-23.98,13.38,3.19,1.2,6.38,2.39,10.34,3.87-1.53,.08-2.34,.15-3.15,.17-6.02,.1-11.99-.62-18.03-.66-8.71-.06-16.01-4.79-23.36-9.73l6.13,11.65c-7.08-2.2-15.92-10.81-21.41-21.24v6.12l-.61,.17c-2.16-4.99-4.33-9.98-6.87-15.84-.32,3.3-.56,5.76-.8,8.22l-.41,.13c-1.35-3.58-2.7-7.17-4.29-11.37-.26,3.03-.47,5.51-.75,8.67-2.03-5.57-3.87-10.61-5.71-15.64l-.78,.15c.34,2.31,.69,4.63,1.14,7.67-7.33-10.45-10.11-21.91-13.19-33.37,.31,2.44,.55,4.9,.96,7.33,.44,2.57,.9,5.16,1.61,7.67,2.54,8.96,6.2,17.43,11.48,25.14,2.08,3.04,3.26,5.98,2.67,10.06-1.89,13.16-3.14,26.41-4.62,39.62-.03,.29,.05,.59,.15,1.57,2.87,0,5.81,.21,8.71-.07,2.07-.2,4.11-.95,6.1-1.64,6.96-2.43,13.99-2.08,20.18,1.5,9.13,5.28,19.02,6.83,29.17,7.84,5.75,.57,10.59,2.82,14.16,7.62,4.8,6.45,11.88,10.21,18.13,14.94,2.55,1.93,5.15,3.8,8.34,6.14H155.06Zm196.22-119.53c0,1.49,0,2.68,0,3.87,.02,15.35,0,30.69,.11,46.04,0,1.3-1.23,3.46,1.35,3.74,.24,.03,1.05-2.37,1.08-3.65,.12-5.71,.05-11.43,.05-17.4h10.64c.34-1.19,.6-2.11,.8-2.82h5.21c.1,1.86,.18,3.44,.26,5.06,1.49,.17,2.74,.31,4.21,.48v9.11c3.22,1.46,2.17-1.81,3.1-2.48h6.24c.14,1.25,.27,2.32,.39,3.4,.27-.15,.54-.3,.8-.45,2.66,2.5,3.39,6.22,5.31,9.95,.57-5.12,1.28-9.7,1.54-14.3,.27-4.72,.1-9.46,.15-14.2,0-.79-.06-2.04,.35-2.28,2.03-1.14,1.23-2.94,1.33-4.52,.05-.81,0-1.63,0-2.44,1.23,3.11,2.23,6.22,2.49,9.4,.43,5.12,.35,10.29,.55,15.43,.05,1.24,.35,2.47,.54,3.71h.84c.56-3.56,1.48-7.09,1.6-10.65,.25-7.44,.08-14.89,.08-22.39h15.76v50.92c3.03-.91,4.46-2.43,4.19-5.53-.25-2.96-.05-5.95-.05-8.89,1.67-.13,2.94-.22,4.23-.32,.09-1.84,.17-3.41,.26-5.19,3.06,0,5.88,.09,8.68-.03,1.98-.09,2.68,.64,2.6,2.61-.12,3.31-.03,6.62-.03,9.92,4.31,.11,4.62-.2,6.26-3.7,3.26-6.95,3.55-13.71-.75-20.37-1.09-1.69-2-3.5-3.05-5.21-6.23-10.16-14.84-18.31-22.76-27.04-10.52-11.59-17.39-24.91-18.96-40.58-.65-6.49-2.25-12.08-8-15.92-1.81-1.21-3.14-3.12-4.72-4.68-.44-.43-1.01-.74-1.52-1.1l-.96,.47c1.29,4.34,2.57,8.68,3.87,13.06-3.78-3.85-7.62-7.74-11.45-11.64l-1.33,.79c.81,3.62,1.63,7.25,2.56,11.39-4.57-4.4-8.94-8.6-13.3-12.8l-.72,.38c1.68,3.22,3.36,6.44,5.04,9.66l-.49,.77c-4.57-2.69-9.14-5.38-13.88-8.16,1.79,2.83,3.57,5.65,5.35,8.47l-.74,.63c-3.65-3.28-7.29-6.57-11.34-10.22,1.68,3.76,3.12,6.97,4.56,10.18-.36,.33-.71,.67-1.07,1-5.26-3.05-10.53-6.09-15.79-9.14l-.31,.37c1.54,2.48,3.08,4.96,4.62,7.45l-.4,.45c-1.74-1.29-3.48-2.58-5.35-3.97l.46,2.44c-.96-.48-1.6-.8-2.89-1.45-1.48,7.93-3.5,15.44-4.18,23.07-1.87,21.08-4.82,42.11-4.06,63.37,.05,1.45-.36,2.99-.88,4.36-1.67,4.37-3.77,8.59-5.19,13.04-2.22,6.93-4.03,13.99-6.05,21.14,3.81-.46,7.47,.13,10.82,3.91v-22.54c1.62-.11,2.98-.21,4.64-.32v-5.74h4.48v-10.26h2.92v-37.68h19.89Zm115.82-30.73c-.79,1.55-1.98,3.32-2.63,5.28-5.07,15.16-5.01,29.85,4.19,43.68,3.01,4.53,5.89,9.14,8.84,13.72,1.9,2.96,2.35,5.88,.2,8.99-2.4,3.48-4.59,7.1-6.95,10.61-2.2,3.27-4.5,6.46-6.93,9.92h10.59v-11.15h9.22c.23,1.06,.42,1.98,.59,2.74h4.09v-9.4h17.19v24.1h2.76c2.29-5.66,5.93-1.08,9.24-1.43-.4-4.39-.53-8.84-1.25-13.19-3.1-18.8-12.59-34.4-24.87-48.5-3.97-4.56-8.87-8.44-12.17-13.41-4.58-6.88-8.06-14.49-12.1-21.95Z"/><path d="M535.56,195.26c.62-.72,1.23-1.43,1.93-2.24l-1.27-.92c3.43-.6,6.61-1.12,9.76-1.73,.73-.14,1.94-.51,2.01-.93,.57-3.61,3.58-3.14,5.82-3.32,3.81-.31,7.65-.08,12.28-.08l-2.34,1.06c1.98,.58,3.72,1.73,4.82,1.29,3.46-1.37,5.69,.79,7.61,2.57,2.25,2.09,3.64,5.09,5.57,7.56,1.02,1.3,2.4,2.32,3.81,3.66-13.73,5.55-27.32,11.04-40.91,16.54l.28,1.03c1.1,.21,2.2,.42,3.86,.74-.97,2.48-1.87,4.79-2.72,6.97-2.82,1.21-5.64,2.42-8.38,3.6,2.67,.32,5.31,.63,7.94,.94l-.55,.84c.47,.51,.89,1.37,1.43,1.46,1.79,.29,3.62,.36,5.43,.4,2.61,.05,4.85,2.08,5.33,3.64,.76,2.46,2.62,1.31,3.48,1.59,2.1,.67,4.62,.39,6.9,.07,5.28-.75,10.52-1.76,15.78-2.65,.79-.13,1.59-.24,2.76-.41l-1.07,1.39,.3,.64c6.03-3.18,12.07-6.36,18.45-9.72,2.14,3.87,4.1,7.42,6.12,11.07-2.44,.23-4.63,.43-7.25,.68,2.55,3.45,5.45,1.31,8.78,1.68,3.36,8.6,7.13,17.46,10.31,26.54,4.97,14.18,8.54,28.75,9.93,43.74,.17,1.79-1.82,3.79-2.74,5.57,.76-.5,1.89-1.25,3.41-2.26,.2,3.37,.7,6.4,.39,9.34-.13,1.23-1.84,2.49-3.11,3.32-1.02,.67-2.44,.73-3.59,1.48,2.3-.53,4.6-1.05,7.14-1.63v10h-9.71l-.15-.68c2.29-1,4.58-2,5.96-2.6-3.1,0-7.27,.86-10.79-.27-2.91-.93-5.75-1.36-8.65-1.65-1.69-.17-3.45,.41-5.52,.69-3.09-2.82,1.26-4.71,1.74-7.25-.22-.2-.44-.4-.67-.6-2.48,2.73-4.96,5.45-6.94,7.63-.85-.71-1.53-1.73-2.16-1.71-1.64,.07-3.32,.44-4.87,1-.9,.33-1.49,1.46-2.38,1.87-1.09,.5-2.35,.62-3.54,.91-.08-.47-.16-.95-.35-2.1-5.47,1.14-11.13,2.31-17.08,3.55l.44-2.62h-13.5l-.15-1.14c4.88-.96,9.75-1.93,14.63-2.89l.25,.69c-.43,.27-.86,.55-1.82,1.16,4.83-.7,9.09-1.32,12.31-1.79,.88-2.17,1.44-3.54,2.06-5.08-4.62,1.18-9.01,2.31-13.4,3.44l-.32-.92c1.01-.69,2.02-1.38,3.56-2.43-4.36,1.19-8.15,2.22-11.94,3.26-.13-.39-.26-.79-.39-1.18,2.01-.87,3.95-1.98,6.04-2.55,4.13-1.14,8.38-1.87,12.52-3,2.85-.77,5.39-4.84,5.31-8.21,1.01,.14,1.99,.25,2.95,.41,.88,.14,1.75,.33,2.66,.32-4.38-3.09-8.91-5.57-14.7-4.06,1.19-.45,2.37-.93,3.58-1.33,1.33-.44,2.66-.99,4.03-1.16,1.31-.16,2.68,.09,4.16-.43-2.13-1.35-4.26-2.71-6.24-3.97-.08,.05,.46-.29,1.08-.68-5.67-2.48-9.85,1.32-14.6,3.26,2.89-3.01,5.38-5.99,8.3-8.47,1.36-1.16,3.6-2.03,5.35-1.88,6.59,.55,12.85-.88,19.01-2.75,2.64-.8,4.98-2.56,7.23-4.36-9,5.96-19.06,6.09-28.94,6.06-.34-2.22,0-4.55-1-5.6-1.75-1.84-4.19-3.24-6.59-4.19-2.36-.94-6.67,1.18-7.67,3.4,1.23,.08,2.37,.15,3.83,.25-.7,1.06-1.31,1.98-1.87,2.84-.74-.65-1.29-1.55-1.87-1.56-2.03-.06-4.76,3.43-5.17,6.57-.06,.47,.8,1.05,1.49,1.88-4.69,2.98-9.09,6.74-15.49,7.64,2.16-2.26,4.64-3.95,5.83-6.29,2.12-4.17,6.31-5.92,9.64-9.14-1.01-.64-1.7-1.08-3.01-1.91,2.48-1.06,4.56-1.94,6.85-2.92l-1.93-1.28c1.17-.53,2.02-1.01,2.93-1.3,2.27-.74,4.67-1.18,6.84-2.14,3.18-1.4,3.21-2.07,1.4-4.22,3.76-.92,7.83-1.9,11.88-2.94,1.53-.39,3.02-.91,4.56-1.9-2.37,.13-4.86-.16-7.09,.46-5.79,1.6-11.5,3.52-17.19,5.47-3.28,1.12-6.45,2.56-9.68,3.82-.46,.18-1.07,.36-1.47,.19-4.41-1.82-8.53,1.3-12.77,.75-4.76-.62-8.37,1-11.2,4.9-3.24-4.99-6.25-9.62-9.25-14.25,3.31-.99,6.64-1.98,9.95-3.01,.37-.11,.64-.51,1-.69,.81-.41,1.76-2.54,2.42,.13,.02,.08,.37,.12,.56,.12,3.28,0,6.57,0,10.28,0-3.84-.87-7.16-1.79-10.55-2.31-1.38-.21-2.91,.41-4.35,.74-3.24,.74-6.47,1.54-10.06,2.4,.71-4.2,.12-4.47-5.82-3.63-.15-.26-.31-.51-.46-.77,1.78-.89,3.48-2.29,5.35-2.57,5.28-.81,10.64-1.16,16.1-2.42-1.3-.41-2.6-.81-3.97-1.25,6.14-1.13,12.28-2.27,18.42-3.4l.27-.81c-2.7-1.27-5.4-2.55-8.28-3.91,.07-.24,.4-1.17,.59-2.14,.21-1.02,.29-2.06,.46-3.37-5.4-1.03-9.54,2.38-14.6,3.5,.34-1.49,.63-2.75,.97-4.19h-6.14c2.17-1.61,4.11-3.04,6.05-4.48l-.35-.6c-2.69,.98-5.37,1.96-8.1,2.96,.11-.31,.26-.71,.42-1.13-1.18-.27-2.37-.54-4.35-1,2.99-1.98,5.49-3.64,8-5.3-2.43,.19-4.89,.38-7.35,.58l-.12-.52c5.11-3.44,10.21-6.87,15.51-10.43-.68-.22-1.33-.43-1.52-.49l2.02-4.4c-1.12,.12-1.97,.21-3.57,.38,4.2-1.73,7.72-3.18,11.24-4.63l-.03-1.44c-3.08-1.12-6.16-2.23-10.05-3.64,6.69-2.71,12.68-5.13,18.65-7.55-1.09-1.18-5.12-.98-1.47-4.41l-1.88,.44c-.8-4.64-4.97-1.95-7.28-3.56,.45-.63,.94-1.31,1.91-2.67l-4.02,.88,.07,.07Zm59.61,51.41l2.75-1.52-.14-.72c-2.26,.16-4.53,.33-6.79,.49,0,.33,0,.67,0,1l4.26,.69c-.8,.3-1.59,.63-2.4,.91-4.57,1.57-9.76,.54-14.06,3.35-.41,.27-1.17-.02-1.77,0-1.15,.04-2.31,.11-3.46,.18-2.84,.18-5.68,.37-9.05,.58,1.03-1.15,1.6-1.78,2.14-2.39-4.26-5.51-9.76-7.45-12.27-2.96,2.27,1.51,7.51,.95,4.67,6.25,.65,.34,1.8,.69,1.79,.97-.19,3.37,1.63,1.94,3.17,1.49,.41-.12,.98,.31,1.48,.47,.85,.27,1.72,.81,2.54,.74,2.74-.25,5.46-.77,8.2-1.12,6.54-.83,13.08-1.6,19.62-2.44,.51-.07,.97-.47,1.82-.91l-2.31-1.16,2.51-3.38c-.79-.15-1.75-.34-2.7-.52Zm-62.33-2.13c1.63,.42,2.96,.92,4.32,1.05,.86,.08,2.53-.35,2.54-.61,.13-2.85,2.77-2.25,4.05-2.51,2.21-.46,4.64,.14,7,.29,.65-2.79-1.48-2.49-2.67-2.52-2.67-.06-5.35,.17-8.02,.45-2.76,.28-5.6,.58-7.23,3.85Zm79.72,56.37l.07-.25c-6.44,1.29-12.88,2.58-18.31,3.67,7.98,2.6,16.8,5.47,25.62,8.35l.14-.43c-6.14-2.48-12.28-4.96-18.34-7.41,3.48-1.26,7.15-2.6,10.82-3.93Zm-84.07-68.24c.27,.5,.53,1,.8,1.5l7.89-4.56-.65-1.21-8.04,4.27Zm90.16,95.94c.14,.28,.28,.57,.42,.85,3.04-1.67,6.08-3.35,9.12-5.02l-.3-.62c-3.08,1.6-6.16,3.19-9.24,4.79Zm-72.05-77.63c-.5-1.67-.87-2.94-1.29-4.34-1.09,.63-2.13,1.23-3.36,1.94,.98,.63,1.62,1.11,2.32,1.48,.61,.32,1.28,.51,2.32,.92Zm51.13,66.94l-.48-1.09c-2.62,1.19-5.25,2.39-7.87,3.58l.35,.81c2.67-1.1,5.34-2.2,8.01-3.3Zm15.26-42.39l-.32,.67c1.5,.63,3.07,1.87,4.48,1.71,1.22-.14,2.26-1.87,3.38-2.89l-.54-.53c-2.21,3.1-2.68,3.17-7.01,1.04Zm14.9,37.63l-.14-.95c-2.44,.7-4.88,1.41-7.32,2.11l.35,1.19c2.37-.79,4.73-1.57,7.1-2.36Zm-40.93-14.92l-.48-1.02-5.37,2.57,.49,1.03,5.36-2.58Z"/><path d="M524.18,146.68c-5.61,1.99-10.84,3.99-16.18,5.62-1.25,.38-2.95-.29-4.32-.8-7.35-2.71-15.1-2.1-23.48-3.44,13.12,2.91,25.35,5.63,37.89,8.42-3.07-1.16-5.93-2.23-8.81-3.32,4.98-1.78,9.89-3.58,14.84-5.25,.75-.25,1.88-.27,2.51,.13,14.98,9.46,28.88,20.26,41.05,33.2,.19,.2,.26,.53,.26,.54-2.75,.48-5.52,.98-8.3,1.44-6.65,1.11-13.31,2.13-19.93,3.36-2.35,.44-4.58,1.49-6.92,2.03-3.04,.71-6.13,1.21-9.2,1.77-.48,.09-1.24-.13-1.44,.12-2.42,3.08-5.63,.58-8.3,1.66l-.36-.93c2.12-1.12,4.23-2.24,6.24-3.3-1.25-.83-2.76-1.41-3.52-2.51-.47-.69,.19-2.16,.44-3.94-4.91,.79-10.12,1.44-15.25,2.52-3.17,.67-4.59-.03-4.76-3.38-4.1-.06-7.77-1.03-10.94-4.07-2.27-2.17-5.27-3.57-7.98-5.26-1.55-.97-2.87-.98-4.68,.08-2.79,1.64-5.99,2.57-9.78,4.12,1.74-3.58,1.71-7.34,5.91-7.78-.03-.43-.26-1.1-.05-1.3,1.29-1.21,2.51-2.17,1.22-4.32-.28-.47,.61-3.18,2.94-2.7,1.06,.22,2.14,.39,3.1,.56-2.81-1.76-5.65-3.54-8.48-5.31,1.51-1.65,2.65-2.88,3.79-4.12l-.4-1.01c-6.76,1.54-13.52,3.09-20.68,4.72l-.72-4.73c-1.21,0-2.41-.23-3.48,.04-3.08,.77-6.11,1.74-9.15,2.65-.28,.08-.73,.31-.73,.47,.07,3.39-3.15,2.81-4.82,4.72,4.56-.22,9.13-.44,13.69-.66l.16,.26c-4.45,1.53-8.89,3.05-13.15,4.52,1.36,.26,2.94,.57,5.27,1.02-1.17,.63-1.68,1.02-2.25,1.2-2.86,.85-5.91,1.29-8.56,2.57-2.89,1.39-5.34,.53-8.13-.74l8.82-3.09h-12.15l-.14-.88c2.71-.96,5.41-1.91,8.12-2.87-13.59,1.29-14.69,1.22-15.21-1.39-3.94-.28-7.82-.56-11.8-.84l.38,.83c-1.5-.13-3.06-.09-4.48-.49-.44-.13-.95-1.67-.69-2.25,.67-1.52,1.73-2.86,3.1-5-1.35,.48-2.21,.56-2.74,1.01-1.61,1.37-3,3.01-4.66,4.29-1.17,.9-2.03,3.3-4.32,.99-1.04-1.05-8.5,1.64-9.76,2.77-.58,.52-1.96,.84-2.58,.5-2.62-1.41-5.08-3.11-7.75-4.79,3.52-5.9,2.68-11.08-2.37-16.11,5.32-1.06,10.18-.24,15.1,.1-4.25-1.73-8.5-3.46-12.52-5.09,.89-1.55,1.78-3.12,2.93-5.13l-4.28,.97,1-2.29c-3.11,.53-5.9,.76-8.54,1.52-2.76,.78-5.2,.92-7.79-.61-1.85-1.09-4-1.69-6.06-2.52,4.27-5.98,12.38-8.75,18.76-6.19,3.89,1.56,7.58,1.54,11.44,.22,3.33-1.14,6.69-2.16,10.04-3.25,7.24-2.37,14.62-3.82,22.28-3.22,12.25,.96,24.49,1.96,36.73,2.95,.26,.02,.5,.15,.76,.23l.23,.85c-4.38,1.39-8.76,2.79-13.57,4.31,5.46,.5,10.01-.95,14.19-3.42,2.14-1.27,4.13-1.1,6.31-.67,26.81,5.24,52.01,14.71,75.47,28.74,.32,.19,.59,.45,1.26,.96Zm-121.8-25.44c-8.74,.89-16.87,5.94-26.07,3.55,10.78,3.2,21.55,6.41,32.33,9.61l.14-.41c-6.99-2.6-13.98-5.21-20.9-7.78,4.71-1.61,9.6-3.29,14.5-4.96Zm46.79,25.14c5.29-2.01,10.5-3.87,15.62-5.96,3.85-1.57,6.68-4.38,8.57-8.14-5.45,7.28-14.36,8.14-21.79,11.61-1.49,.69-2.36,.91-2.4,2.49Zm44.98-6.57c-9.04,.03-17.39,4.87-26.6,3.64,9.43,2.77,17.68-2.81,26.6-3.64Zm-77.09,13.15c3.34,.36,8.08-1.36,13.42-4.85-1.99,.2-4.07,.41-6.17,.62,.83,1.55-1.09,2.65-7.25,4.23Zm-34.84-12.76l-.49-1.3c-3.59,1.51-7.18,3.02-10.77,4.53l.34,.85c3.64-1.36,7.28-2.72,10.92-4.08Zm92.46,24.7l.28,.74c3.49-1.25,6.98-2.5,10.48-3.75-.15-.38-.29-.76-.44-1.14-3.44,1.38-6.88,2.76-10.32,4.15Zm-56.69-24.22l.53,.71c2.76-2.19,5.51-4.38,8.27-6.57-3.93,.6-5.95,3.79-8.8,5.87Zm-9.05-4.72l.23,.99c2.97,.86,5.17-1.49,7.82-1.97l-.19-.81c-2.62,.6-5.24,1.2-7.87,1.79Zm10.16,11.19l-.48-.84-10.77,5.07c4.89,.83,7.3-3.66,11.25-4.23Z"/><path d="M202.9,373.8c-1.61,2.54-.18,3.9,2.01,4.76,3.25,1.27,6.56,2.38,10.03,3.63l-1.34,1.78c2.07,.74,4.03,1.45,6.48,2.33-1.21,.77-2,1.27-3.54,2.24,6.79,3.73,10,10.35,15.8,15.8-2.9-.67-4.95-1.14-7.19-1.66l1.32-.54c-2.4-1.18-4.73-2.17-6.9-3.44-1.49-.87-3.63-1.18-2.17-4.35,.62-1.34-2.04-4.32-3.45-6.39-.57-.84-2.37-.83-1.54-2.61,.07-.15-.86-.99-1.43-1.18-2.07-.69-4.19-1.25-6.28-1.85-.48,.83-1.01,2.14-1.25,2.09-3.74-.76-4.63,2.72-6.35,3.99,0,1.49-.31,2.72,.08,3.67,.52,1.29,1.43,2.51,2.43,3.5,2.58,2.58,5.31,5.02,8.64,8.14-5.07-1.76-8.18-6.65-13.71-4.58l.82,1.79h-9.22l-.07,.79c.74,.19,1.48,.38,2.8,.73-3.04,.31-5.51,.57-8.53,.88l-3.37-12.44c6.44,.78,12.36,1.5,18.28,2.22l.12-.98c-3.59-.41-7.18-.75-10.76-1.24-7.73-1.05-7.72-1.09-9.19-8.86-2.56-13.51-3.72-27.15-3.55-40.9,.02-1.58-.45-3.66,2.97-3.43-.95,.56-1.47,.87-1.98,1.18,4.56,1.69,8.15,1.66,11.55-.21-1.46-.68-3.82-.11-3.63-2.67-.69,0-1.38-.05-2.07,0-2.1,.13-4.19,.3-6.55,.48v-8.81c2.37,.83,4.5,1.63,6.67,2.31,.62,.19,1.43,.27,1.98,.02,.52-.24,.81-.98,1.3-1.63-1-1.1-2.32-2.55-3.42-3.76-2.04,.63-3.85,1.18-6.29,1.93,.22-3.96,.4-7.22,.59-10.79,1.88,0,3.46,0,5.05,0l-.07-.05c.94,.3,1.94,.98,2.8,.83,3.46-.58,4.83,2.63,7.31,3.77,.67,.31,1.28,.74,2.73,1.59-2.43,.22-4.15,.21-5.79,.56-1.82,.39-2.23,2.44-.81,3.66,.59,.51,1.32,.87,1.91,1.23l-.27,1.78c0,.19,0,.39,.01,.58-.89,.43-1.75,1-2.69,1.27-1.12,.31-2.31,.37-3.97,.6,1.31,1.49,3.96,.12,3.44,2.74,.89,.03,2.54,.16,2.55,.06,.36-2.5,2.02-1.14,3.19-1.14-.71,.95-1.42,1.9-1.71,2.3,1.56,1.8,2.96,3.41,4.35,5.03l-.66,.91h12.93l.42-.81-15.4-7.38c2.71-.99,5.17-1.5,8.2-.1,2.91,1.34,6.42,1.5,9.7,1.89,2.77,.33,5.61,.04,8.37,.4,2.26,.29,4.59,.87,6.62,1.86,.85,.42,1.01,2.24,1.54,3.55-1.92-.15-3.64-.29-5.36-.43l-.17,1.16c1.28,.44,2.56,.87,3.83,1.33,1.03,.38,2.04,.81,3.06,1.22l-.52,1.39c-2.93-1.02-5.82-2.2-8.81-3-1.35-.36-3.04-.32-4.33,.19-1.87,.73-3.5,2.05-5.41,3.22l1.97,1.39-.2,.45c-4.52-1.25-9-2.7-13.58-3.67-3.96-.84-5.41,.18-7.25,3.83-.13,.25-.67,.3-1.33,.57,4.31,1.04,8.28,2.74,12.23,2.71,2.78-.02,5.12-.08,7.56,1.33,1.08,.63,2.68,.84,3.93,.61,2.18-.4,4.28-1.28,6.76-2.08l-2.44-3.26c2.23-2.1,5.07-.9,7.43-.54,3.27,.5,6.17,1.92,7.96,5.36,2.56,4.94,5.74,9.56,9.04,14.94-2.45-.17-3.8-.26-5.14-.35,7.27,.98,5.42,8.79,9.55,11.95l-.28,.9c-2.34,0-4.74,.31-7.02-.07-3.54-.59-6.99-2.1-10.58-.23-.4,.21-1.06,.24-1.48,.07-3.45-1.43-6.83-3.04-10.31-4.37-2.48-.95-5.1-1.54-7.66-2.29-.19-.43-.27-1.14-.58-1.26-6.08-2.39-12.07-5.29-19.12-3.91,6.26,1.97,12.34,3.89,18.43,5.81Zm27.6-15.46c-2.15-.91-4.16-1.57-5.95-2.6-.98-.57-1.56-1.81-2.41-2.66-.27-.27-.84-.24-1.28-.35-.04,.53-.3,1.19-.08,1.55,.4,.67,1.02,1.27,1.68,1.7,1.13,.74,2.77,1.09,1.59,3.06-.05,.08,1.23,1.35,1.65,1.24,1.63-.45,3.17-1.25,4.79-1.94Zm-48.9-11.57c-.74-3.17-4.79-4.14-8.9-2.31,3.08,.8,5.89,1.53,8.9,2.31Zm-.43,48.31l.23,1.17,9.67-1.88c-3.42-.74-6.84-1.6-9.89,.71Zm9.61-35.54c.44,3.66,2.24,5.25,5.75,5.38-1.94-1.81-3.58-3.34-5.75-5.38Zm20.61-.13c-2.57-3.02-5.6-4.24-7.85-3.71,2.62,1.24,5.23,2.47,7.85,3.71Z"/><path d="M190.23,305.84c3.72,.18,6.39,4.21,10.65,2.9,.43-.13,1.92,1.87,2.28,3.07,1.22,4.12,1.31,4.29,5.42,3.89,.32-.03,.71,.22,1,.44,2.59,1.95,5.19,3.88,7.71,5.91,.38,.31,.42,1.05,.77,2.02-5.11-1.41-9.85-2.71-14.6-4.02l.39-1.5c-.31-.24-.44-.41-.62-.47-1.47-.5-2.94-.99-4.41-1.47-2.28-.74-4.52-1.93-6.84-2.1-3.98-.28-8.01,.04-12.02,.22-.68,.03-1.34,.59-2.02,.91l.08,.05c-1.54-.46-3.07-.93-4.82-1.45,.4-3.36,.62-6.88,1.37-10.29,.21-.97,1.99-1.59,3.27-2.54l-2.83-1.28c.78-3.72,1.58-7.51,2.4-11.41,1.75,.29,3.29,.54,4.74,.78-1.08-1.86-2.18-3.62-3.11-5.46-.26-.51-.14-1.3,.03-1.9,1.65-5.8,3.27-11.6,5.06-17.36,.86-2.75,2.08-5.38,3.21-8.27,3.45,2.6,6.84,5.16,10.23,7.72,.16,.12,.38,.26,.42,.42,1.28,5.32,6.33,5.9,10.07,8.19,.9,.55,1.83,1.98,1.78,2.95-.14,2.53,1.39,5.28-.77,7.64-.12,.13,.5,.94,1.05,1.92-3.22-.85-5.99-1.57-8.76-2.3l1.39,3.74c-3.22-1.19-6.15-2.24-8.92,.55,1.09,.66,2.01,1.22,3.12,1.9l-1.11,.66,.97,.5-.24,.86c-1.92-.64-3.89-1.16-5.75-1.94-1.98-.83-3.85-1.91-5.77-2.88l-.42,.85c5.44,2.78,10.89,5.56,16.47,8.41-1.13,.43-2.3,.88-4.52,1.72,5.74,2.59,10.75,4.85,15.75,7.1l-.14,.32-13.34-2.97-.33,.8,2.58,3.59c-3.01,.7-5.63-2.25-8.55-2.3-.81,.65-1.61,1.28-2.41,1.92-3.91-.62-7.5-3.16-11.65-2.32l-.13,.91c3.95,.45,7.9,.9,11.84,1.35Zm15.42-24.58c-1.01-.32-2.06-.58-3.03-.99-1.08-.46-2.16-.98-3.14-1.64-1.34-.89-2.59-1.94-3.87-2.91,1.28,5.96,5.96,5.17,10.05,5.54Z"/><path d="M624.05,375.99c2.04-.35,4.09-.7,6.2-1.06-.2-1.28-.4-2.52-.65-4.05-5.53,1.64-10.9,3.22-16.27,4.81l-.15,.36h6.87c-2.05,2.83-9.11,4.21-14.06,3.05,.55-.7,1.06-1.36,2.02-2.6-1.82,.46-3.1,1.01-4.38,1.03-1.03,.02-2.07-.59-3.41-1.02,.58-.26,1.06-.68,1.49-.63,5.88,.63,10.72-2.4,15.79-4.54,.95-.4,1.52-1.64,2.36-2.39,.78-.7,1.6-1.46,2.55-1.84,2.91-1.17,5.89-2.17,8.71-3.7-2.43,.32-4.86,.64-7.29,.95l-.35-.96c2.97-1.31,5.93-2.63,9.54-4.23-.57,5.51-.8,10.25-1.72,14.84-.22,1.1-2.67,1.9-4.22,2.54-.84,.35-1.95,.06-2.94,.06l-.09-.63Z"/><path d="M194.88,239.14c3.35,4.81,6.63,9.25,9.59,13.88,2.68,4.17,2.47,4.52-1.6,7.16-3.98-1.4-6.98-3.88-8.64-7.82-.12-.27-.29-.59-.52-.73-4.51-2.8-2.12-6-.55-9.15,.52-1.04,1.07-2.07,1.72-3.34Z"/><path d="M203.67,223.99c2.21,5.09,3.29,9.87,2.33,15.23-.66,3.66-.13,7.54-.77,11.55-2.9-4.05-5.85-8.07-8.66-12.18-.42-.61-.56-1.8-.25-2.45,.88-1.87,2.05-3.6,3.3-5.7,1.61,1.8,3,3.36,4.39,4.91l.67-.52c-.77-1-1.37-2.22-2.34-2.95-2.37-1.79-2.18-3.5-.34-5.48,.59-.64,1.02-1.44,1.69-2.41Z"/><path d="M612.76,398.75c.6-.28,1.2-.56,1.79-.84l-.32-.44c-.83,.15-1.65,.31-1.91,.36,3.64-3.11,7.57-6.47,12.08-10.32-1.96-.27-2.93-.4-3.79-.52,3.02-2.32,6.07-4.67,9.12-7.02l.58,.54c-.62,3.02-.96,6.13-1.98,9-.51,1.43-2.27,2.41-3.42,3.55,.54,.03,1.43,.09,2.4,.15,.21,2.78-1.05,4.32-3.74,4.77-3.43,.57-6.86,1.16-10.28,1.74-.18-.33-.35-.65-.53-.98Z"/><path d="M561.13,225.96c.9-.35,1.88-1.13,2.68-.97,4.9,.95,7.63-2.56,10.99-4.93,1.26-.89,2.83-1.55,4.35-1.8,4.26-.69,8.55-1.24,12.85-1.56,1.5-.11,3.06,.59,4.59,.92l-.14,.75-6.73,1.08-.02,.54c.8,.28,1.59,.56,2.88,1.01-3.61,.79-6.81,1.49-10.16,2.22,.06,.3-.04-.2-.15-.7-.84,.21-2.03,.14-2.47,.68-2.6,3.14-6.21,3.25-9.76,3.44-2.91,.16-5.83,.03-8.74,.03l-.16-.71Z"/><path d="M480.57,230.69c2.68-1.07,5.07-2.02,7.45-2.97l-.14-.59-19.93,2.44-.09-.54c8.6-1.78,17.19-3.55,25.79-5.33l.25,.86-1.29,1.67c3.63-.96,7.06-3.81,10.43,.4-1.74,.55-3.04,2.63-4.48,0-3.69,4.03-14.62,6.67-18,4.06Z"/><path d="M477.74,195.97c1.96-3.83,4.84-2.29,7.22-2.57,1.41-.17,2.82-.38,4.19-.73,4.63-1.17,9.21-2.55,13.88-3.52,1.3-.27,2.83,.58,4.41,.95-1.27,1.75-4.38,.6-4.19,3.53-.85-.19-1.7-.37-2.54-.56l.19-.81c-2.17,.25-4.34,.5-7.48,.86,3.66,1.09,6.51,1.95,9.53,2.85-3.74,.84-7.26,1.94-10.85,2.32-2.2,.23-4.51-.63-6.75-1.48,2.21-1.29,5.06-.39,6.56-3.04-4.5,.7-9,1.4-14.18,2.21Z"/><path d="M615.71,409.6c.02,.05-.12-.38-.2-.64-2.84,.57-5.67,1.14-8.5,1.71l-.19-.44c2.24-1.45,4.48-2.9,7.29-4.72-4.96,.31-9.27,.58-13.59,.85l-.04-.29c8.07-1.59,16.14-3.18,24.39-4.8,.34,2.52-.34,3.88-2.48,4.77-2.28,.95-4.39,2.31-6.68,3.56Z"/><path d="M492.64,219.62l2.16-1.4h-5.26c2.65-1.67,5-3.8,7.77-4.75,3.76-1.29,7.82-1.69,11.76-2.46-.02,.77,.28,1.9-.11,2.23-1.33,1.14-3.34,1.68-4.31,3.01-3.12,4.32-7.65,3.29-12.01,3.37Z"/><path d="M205.4,426.18l-10.23-3.19c1.83,3.47,5.4,3.24,8.12,5.02-2.88-.67-5.78-1.31-8.65-2.03-1.16-.29-2.27-1.06-3.42-1.09-3.8-.11-4.55-2.89-5.62-6.1,6.74,2.58,14.63,.56,19.8,7.39Z"/><path d="M194.69,428.81c.29,1.82,.52,3.21,.76,4.7-4.11-.25-5.67-2.68-6.36-6.03,7.34,.79,14.76,.66,21.52,3.95l-.19,.82c-1.02-.3-2.02-.74-3.06-.85-1-.11-2.04,.2-3.05,.17-2.65-.1-5.3-.18-7.92-.53-.55-.07-.97-1.23-1.7-2.23Z"/><path d="M439.18,211.29c-4.92,2.98-11.25,4.23-13.24,10.43-3.59-1.25-7.29-2.54-10.94-3.81,1.41-1.69,3.86-1.27,5.97-.86,2.19,.42,3.41-.39,5.23-1.44,3.91-2.25,8.36-3.55,12.59-5.24l.39,.92Z"/><path d="M358.36,165.83c-4.71,3.17-10.79,4.72-13.07,11.08-2.51-1.47-5.04-2.96-7.58-4.45l-.06-.81c1.21,0,2.5-.26,3.61,.06,1.71,.5,2.62-.13,4.13-1.02,3.96-2.35,8.39-3.9,12.63-5.77l.33,.9Z"/><path d="M384.92,113.78c-6.41,1.69-12.77,3.63-19.25,4.95-2.44,.5-5.17-.46-7.76-.75l.04-1.16,26.86-3.65,.12,.61Z"/><path d="M229.52,464.4c-4.65,5.92-10.96,5.12-17.22,4.51,5.2-3.72,11-5.01,17.22-4.51Z"/><path d="M425.07,204.1c2.23-.03,4.48-.27,6.68,0,1.7,.2,3.02,.11,4.71-.62,3.12-1.36,6.6-1.93,10.09-2.17-4.16,2.22-8.32,4.45-12.11,6.47-3.04-1.09-6.09-2.18-9.15-3.28l-.23-.39Z"/><path d="M508.72,249.12c-.91,.34-1.79,.68-2.68,1.01l-.23-.43c2.21-1.5,4.42-3,6.75-4.59,.39,.49,.83,1.04,1.28,1.62-.63,2.1-4.61,3.22-2.05,6.48q-5.51,8.26-8.21,8.51c4.28-3.52,5.01-7.93,5.13-12.61Z"/><path d="M474.63,250.23c-3.64-1.55-6.77-2.88-9.89-4.22l.11-.47c2.92,.78,5.83,1.56,9.19,2.45,5.56-3.9,13.43-3.84,19.51,.92-3-.73-6.1-1.17-8.97-2.25-3.96-1.48-6.82-.29-9.28,2.77-.37,.46-.78,.9-.68,.79Z"/><path d="M535.49,195.18c-6.38,2.91-12.76,5.81-19.14,8.72-.09,.04-.18,.1-.27,.13-2.39,.73-3.18,.3-5.26-3.4,2.38,.15,4.29,.32,6.2,.37,.68,.02,1.4-.15,2.05-.38,4.36-1.53,8.7-3.13,13.07-4.63,1.09-.38,2.27-.5,3.42-.74,0,0-.06-.07-.06-.07Z"/><path d="M227.74,421.62l9.54,8.78-.84,.8c1.75-.11,3.52-.4,5.25-.25,.7,.06,1.32,1.07,1.72,1.42-2.11,.31-4.25,.7-6.41,.9-.74,.07-1.87-.07-2.24-.56-2.62-3.46-5.08-7.04-7.6-10.58l.57-.52Z"/><path d="M219.55,474.88c3.97-1.38,7.94-2.76,12.65-4.4l-2.79,4.03c-3.35,.4-6.52,.77-9.69,1.15l-.18-.78Z"/><path d="M228.75,476.78c-1.33,4.21-4.1,5.18-8.44,3.15,1.33-2.07,2.93-2.68,8.44-3.15Z"/><path d="M198.89,286.95l12.63,3.88-.39,1.17c-4.41-.72-8.91-1.14-12.49-4.3l.25-.75Z"/><path d="M237.48,412.59c-3.51-1.31-7.02-2.63-10.54-3.94,4.54-1.57,7.69,.76,10.93,2.86l-.39,1.08Z"/><path d="M626.18,341.21c2.3-.76,4.61-1.52,7.24-2.39v4.33c-2.43-.26-4.77-.52-7.12-.77l-.12-1.16Z"/><path d="M601.01,225.17c-2.79,2.89-2.97,2.83-5.57-1.82,2.2-.3,4.34-1.18,5.57,1.82Z"/><path d="M549.98,310.29c-3.67,.97-6.85,1.81-10.55,2.78,3.07-3.29,6.25-4.11,10.55-2.78Z"/><path d="M184.88,405.59c.92,.78,1.84,1.56,2.68,2.28-3.13,1.58-5.42,.81-6.41-2.66,1.35,.16,2.57,.3,3.8,.45l-.07-.06Z"/><path d="M184.95,405.66l-3.22-2.31,12.43,1.6-.12,.63c-3.06,0-6.12,0-9.17,.01,.01,.01,.08,.07,.08,.07Z"/><path d="M185.84,329.65c0-.19,0-.39-.01-.58,1.29-.26,2.57-.52,3.69-.74l-.18,3.78c-1.35-.95-2.43-1.7-3.5-2.46Z"/></svg>